<?xml version="1.0" encoding="UTF-8"?>
<svg xmlns="http://www.w3.org/2000/svg" width="1440" height="900" viewBox="0 0 1440 900">
  <rect width="1440" height="900" fill="#f4f7f5"/>
  <rect x="0" y="0" width="220" height="900" fill="#ffffff" stroke="#c5d4cc"/>
  <text x="24" y="40" font-family="sans-serif" font-size="18" font-weight="700" fill="#2f6f5e">money-log</text>
  <text x="24" y="80" font-family="sans-serif" font-size="11" fill="#5c6b64">가계부</text>
  <rect x="12" y="96" width="196" height="36" rx="8" fill="#dcebe4"/>
  <text x="28" y="118" font-family="sans-serif" font-size="14" fill="#2f6f5e">월별 목록</text>
  <text x="28" y="158" font-family="sans-serif" font-size="14" fill="#2a322f">지출 등록</text>
  <text x="28" y="190" font-family="sans-serif" font-size="14" fill="#2a322f">소득 등록</text>
  <text x="28" y="222" font-family="sans-serif" font-size="14" fill="#2a322f">엑셀 일괄 등록</text>
  <text x="28" y="254" font-family="sans-serif" font-size="14" fill="#2a322f">고정지출 목록</text>
  <text x="24" y="300" font-family="sans-serif" font-size="11" fill="#5c6b64">설정</text>
  <text x="28" y="330" font-family="sans-serif" font-size="14" fill="#2a322f">지출·소득 수단</text>
  <rect x="220" y="0" width="1220" height="56" fill="#ffffff" stroke="#c5d4cc"/>
  <text x="1260" y="34" font-family="sans-serif" font-size="14" fill="#2a322f">홍길동</text>
  <text x="252" y="104" font-family="sans-serif" font-size="22" font-weight="700" fill="#2a322f">월별 가계부</text>
  <rect x="1180" y="78" width="100" height="36" rx="10" fill="#2f6f5e"/>
  <text x="1200" y="100" font-family="sans-serif" font-size="13" fill="#fff">지출 등록</text>
  <rect x="252" y="130" width="200" height="72" rx="10" fill="#ffffff" stroke="#c5d4cc"/>
  <text x="268" y="158" font-family="sans-serif" font-size="12" fill="#5c6b64">지출 합계</text>
  <text x="268" y="186" font-family="sans-serif" font-size="18" font-weight="600" fill="#2a322f">1,240,000</text>
  <rect x="468" y="130" width="200" height="72" rx="10" fill="#ffffff" stroke="#c5d4cc"/>
  <text x="484" y="158" font-family="sans-serif" font-size="12" fill="#5c6b64">소득 합계</text>
  <text x="484" y="186" font-family="sans-serif" font-size="18" font-weight="600" fill="#2a322f">3,200,000</text>
  <rect x="252" y="224" width="1148" height="320" rx="10" fill="#ffffff" stroke="#c5d4cc"/>
  <rect x="252" y="224" width="1148" height="44" fill="#eef3f0"/>
  <text x="272" y="252" font-family="sans-serif" font-size="13" fill="#5c6b64">일자</text>
  <text x="400" y="252" font-family="sans-serif" font-size="13" fill="#5c6b64">구분</text>
  <text x="520" y="252" font-family="sans-serif" font-size="13" fill="#5c6b64">내용</text>
  <text x="900" y="252" font-family="sans-serif" font-size="13" fill="#5c6b64">금액</text>
  <text x="272" y="300" font-family="sans-serif" font-size="14" fill="#2a322f">07-18</text>
  <rect x="400" y="282" width="48" height="22" rx="4" fill="#c45c4a"/>
  <text x="410" y="298" font-family="sans-serif" font-size="12" fill="#fff">지출</text>
  <text x="520" y="300" font-family="sans-serif" font-size="14" fill="#2a322f">점심</text>
  <text x="900" y="300" font-family="sans-serif" font-size="14" fill="#2a322f">12,000</text>
  <text x="272" y="348" font-family="sans-serif" font-size="14" fill="#2a322f">07-15</text>
  <rect x="400" y="330" width="48" height="22" rx="4" fill="#3d8b6e"/>
  <text x="410" y="346" font-family="sans-serif" font-size="12" fill="#fff">소득</text>
  <text x="520" y="348" font-family="sans-serif" font-size="14" fill="#2a322f">급여</text>
  <text x="900" y="348" font-family="sans-serif" font-size="14" fill="#2a322f">3,200,000</text>
</svg>
